<?xml version="1.0" standalone="no"?>
<!DOCTYPE svg PUBLIC "-//W3C//DTD SVG 20010904//EN"
 "http://www.w3.org/TR/2001/REC-SVG-20010904/DTD/svg10.dtd">
<svg version="1.0" xmlns="http://www.w3.org/2000/svg"
 width="554.000000pt" height="554.000000pt" viewBox="0 0 554.000000 554.000000"
 preserveAspectRatio="xMidYMid meet">
<metadata>
Created by potrace 1.11, written by Peter Selinger 2001-2013
</metadata>
<g transform="translate(0.000000,554.000000) scale(0.100000,-0.100000)"
fill="#000000" stroke="none">
<path d="M0 2770 l0 -2770 2770 0 2770 0 0 2770 0 2770 -2770 0 -2770 0 0
-2770z m2370 2072 c0 -14 -49 -56 -57 -49 -3 4 4 18 17 32 24 25 40 32 40 17z
m577 -18 c8 -22 -18 -37 -36 -20 -7 8 -10 19 -7 25 10 16 36 13 43 -5z m910 0
c8 -22 -18 -37 -36 -20 -7 8 -10 19 -7 25 10 16 36 13 43 -5z m-2610 -2 c15
-9 93 -197 93 -223 0 -34 -30 -32 -43 4 -5 14 -19 17 -72 17 -48 0 -65 -3 -65
-14 0 -20 -24 -36 -39 -26 -11 6 -5 30 29 119 46 119 65 143 97 123z m1611
-14 c3 -16 -5 -18 -63 -18 l-66 0 3 -32 c3 -33 3 -33 66 -36 43 -2 62 -7 62
-16 0 -17 -31 -26 -87 -26 l-43 0 0 -48 c0 -53 -5 -63 -26 -55 -19 7 -21 239
-1 247 6 2 43 4 82 3 58 -2 70 -5 73 -19z m-1364 -54 c9 -3 16 -12 16 -20 0
-11 -11 -14 -42 -12 -58 4 -57 -19 2 -41 41 -15 45 -19 45 -51 0 -26 -6 -38
-26 -49 -30 -17 -97 -8 -106 15 -8 22 -1 25 41 13 28 -8 41 -7 52 2 19 16 3
35 -38 43 -40 8 -58 23 -58 49 0 45 60 72 114 51z m194 -10 c13 -9 28 -27 33
-41 15 -39 -4 -53 -73 -53 -43 0 -59 -3 -56 -12 8 -23 54 -39 82 -28 17 6 27
6 32 -1 11 -19 -16 -34 -61 -34 -61 0 -95 33 -95 92 0 35 6 49 26 68 31 29 79
33 112 9z m186 10 c9 -3 16 -12 16 -19 0 -10 -13 -13 -42 -12 -58 3 -57 -20 2
-42 41 -15 45 -19 45 -51 0 -26 -6 -38 -26 -49 -30 -17 -97 -8 -106 15 -9 23
3 27 41 13 28 -10 38 -10 50 1 21 17 6 36 -36 44 -40 8 -58 23 -58 49 0 45 60
72 114 51z m220 -20 c38 -38 36 -95 -3 -135 -37 -37 -79 -38 -120 -3 -26 21
-31 33 -31 68 0 23 6 49 13 58 36 45 102 51 141 12z m108 15 c3 -8 10 -8 26 2
16 10 24 11 33 2 9 -9 5 -16 -19 -30 -30 -17 -32 -22 -32 -74 0 -53 -17 -89
-33 -72 -4 3 -7 46 -7 95 0 69 3 88 14 88 8 0 16 -5 18 -11z m132 -5 c3 -9 6
-43 6 -75 0 -62 -14 -104 -31 -94 -10 7 -13 168 -2 178 11 11 20 8 27 -9z
m181 2 c27 -19 36 -160 11 -169 -8 -3 -18 -2 -21 2 -3 5 -21 4 -39 -1 -45 -14
-86 9 -86 49 0 52 52 79 101 52 18 -9 20 -8 17 12 -5 33 -31 46 -68 32 -36
-14 -53 3 -25 24 24 17 86 17 110 -1z m429 -2 c12 -31 6 -151 -7 -163 -8 -6
-17 -8 -20 -4 -9 8 -9 168 0 176 11 11 20 8 27 -9z m88 5 c3 -9 9 -9 25 0 30
16 69 14 87 -5 12 -11 16 -35 16 -88 0 -77 -4 -88 -26 -79 -10 4 -14 23 -14
68 0 74 -15 95 -55 77 -23 -10 -25 -18 -25 -71 0 -55 -16 -91 -33 -74 -9 8 -9
168 0 176 10 10 21 8 25 -4z m303 -3 c14 -10 20 -30 23 -80 4 -67 -10 -108
-30 -88 -6 6 -23 6 -43 -1 -66 -20 -113 46 -68 95 18 20 54 23 84 8 25 -14 27
11 2 35 -15 15 -29 16 -72 4 -24 -7 -24 21 1 30 34 14 82 13 103 -3z m117 3
c3 -9 9 -9 25 0 30 16 69 14 87 -5 12 -11 16 -36 16 -90 0 -67 -2 -74 -20 -74
-18 0 -20 7 -20 64 0 75 -15 96 -55 78 -23 -10 -25 -18 -25 -71 0 -37 -5 -63
-13 -70 -22 -18 -27 -2 -27 91 0 69 3 88 14 88 8 0 16 -5 18 -11z m308 -4 c18
-22 4 -36 -27 -24 -38 14 -73 -11 -73 -55 0 -45 20 -60 70 -52 31 5 40 3 40
-9 0 -40 -85 -43 -127 -3 -26 24 -32 93 -10 120 30 38 104 51 127 23z m94 -1
c3 -9 6 -43 6 -75 0 -62 -14 -104 -31 -94 -10 7 -13 168 -2 178 11 11 20 8 27
-9z m184 0 c13 -9 28 -27 33 -41 15 -39 -4 -53 -73 -53 -43 0 -59 -3 -56 -12
8 -23 54 -39 82 -28 17 6 27 6 32 -1 11 -19 -16 -34 -61 -34 -61 0 -95 33 -95
90 0 77 78 121 138 79z m114 5 c3 -9 10 -9 27 0 16 9 26 10 34 2 7 -7 1 -16
-21 -28 -30 -17 -32 -22 -32 -74 0 -53 -17 -89 -33 -72 -9 8 -9 168 0 176 10
10 21 8 25 -4z m223 -3 c14 -10 20 -30 23 -80 4 -67 -10 -108 -30 -88 -6 6
-23 6 -43 -1 -66 -20 -113 46 -68 95 18 20 54 23 84 8 25 -14 27 11 2 35 -15
15 -29 16 -72 4 -24 -7 -24 21 1 30 34 14 82 13 103 -3z m-1592 -545 c10 -77
75 -175 154 -231 l21 -15 -34 -45 c-37 -49 -74 -123 -74 -149 0 -10 14 -22 36
-30 19 -7 34 -15 31 -17 -2 -2 -20 3 -40 11 -26 11 -37 22 -37 36 0 28 40 119
53 119 6 0 8 3 4 6 -3 4 5 21 19 39 l24 32 -28 12 c-28 12 -100 78 -102 93 0
4 -7 23 -15 42 -8 20 -15 45 -15 56 0 11 -4 20 -10 20 -5 0 -10 -10 -10 -22 0
-13 -11 -46 -24 -74 -21 -46 -35 -60 -105 -113 l-24 -18 42 -70 c53 -89 62
-136 32 -153 -12 -6 -27 -9 -34 -7 -7 3 0 8 16 12 16 4 27 14 27 24 -1 22 -37
101 -57 123 -9 10 -13 18 -10 18 3 0 -5 12 -19 27 -24 26 -24 28 -7 40 47 31
91 70 100 88 6 11 18 34 27 52 9 17 22 54 29 82 6 28 15 51 18 51 4 0 9 -18
12 -39z m-483 -41 c3 -3 16 -19 28 -37 54 -77 144 -148 196 -155 l26 -3 -27
-40 c-24 -35 -28 -49 -28 -115 0 -64 4 -80 24 -107 30 -40 79 -63 92 -42 6 11
11 11 20 2 9 -9 3 -13 -24 -18 -29 -6 -42 -3 -65 16 -63 51 -89 135 -65 210 9
27 20 49 25 49 4 0 8 8 8 18 0 11 -26 31 -70 56 -39 22 -70 46 -70 53 0 8 -4
12 -9 8 -5 -3 -26 22 -46 55 -20 33 -39 60 -43 60 -4 0 -6 -29 -4 -63 4 -81
-11 -138 -48 -181 -17 -18 -30 -36 -30 -39 0 -2 12 -10 28 -16 15 -6 43 -34
62 -62 28 -42 35 -62 38 -116 3 -35 1 -68 -4 -73 -5 -5 -9 18 -10 53 -1 98
-61 197 -118 197 -25 0 -38 -48 -33 -120 3 -38 1 -57 -4 -45 -4 11 -8 50 -8
86 l-1 66 -58 16 c-32 9 -69 25 -82 36 -43 36 -100 95 -100 104 0 5 6 2 14 -5
73 -71 144 -111 212 -122 40 -6 43 -4 69 34 32 46 55 125 55 186 0 23 3 56 6
73 l7 32 15 -23 c9 -13 19 -25 22 -28z m989 -45 c2 -99 49 -216 92 -230 34
-11 146 36 201 84 75 66 108 85 121 72 7 -7 7 -19 -2 -38 -20 -43 -124 -203
-133 -203 -7 0 49 110 61 120 4 3 14 17 24 33 9 15 24 38 33 52 31 49 -14 28
-79 -35 -65 -63 -122 -97 -179 -106 l-34 -6 2 -66 c1 -37 0 -51 -2 -32 -6 49
-25 120 -33 120 -3 0 -20 -9 -38 -19 -64 -39 -109 -167 -83 -236 9 -23 9 -27
-1 -18 -21 20 -23 109 -5 158 16 41 84 115 106 115 17 0 11 25 -9 37 -34 21
-53 74 -60 167 l-6 90 -29 -45 c-45 -68 -85 -107 -153 -146 l-62 -36 22 -31
c32 -45 35 -131 7 -186 -30 -59 -64 -90 -97 -90 -27 1 -27 1 9 18 47 22 75 58
87 112 12 52 -6 130 -38 164 -26 28 -27 36 -1 36 54 0 131 62 216 174 55 72
61 70 63 -29z m-1399 -98 c0 -7 -4 -7 -12 1 -14 14 -28 16 -28 4 0 -8 17 -35
101 -164 21 -32 34 -58 29 -58 -11 0 -60 52 -60 63 0 5 -14 29 -30 54 -47 69
-62 102 -55 123 6 18 8 19 31 4 13 -9 24 -21 24 -27z m918 -80 c3 -21 -2 -29
-20 -36 -40 -15 -62 6 -51 49 4 17 12 20 37 18 26 -2 32 -8 34 -31z m-435 -2
c22 -16 19 -43 -5 -59 -38 -23 -78 35 -42 61 22 16 24 16 47 -2z m845 3 c19
-19 14 -48 -10 -57 -29 -11 -58 4 -58 29 0 32 45 51 68 28z m-438 -157 c0 -90
-17 -102 -22 -16 -3 71 -1 85 13 85 5 0 9 -31 9 -69z m-380 12 c0 -16 3 -39 5
-53 5 -22 3 -21 -9 5 -17 35 -20 75 -6 75 6 0 10 -12 10 -27z m764 5 c-3 -13
-12 -36 -19 -53 l-12 -30 3 35 c1 19 3 43 3 53 1 9 8 17 17 17 11 0 14 -6 8
-22z m381 -21 c4 -17 -14 -57 -61 -138 -41 -69 -68 -130 -72 -154 -2 -22 -11
-48 -20 -57 -18 -21 -10 -86 15 -128 22 -37 85 -76 165 -102 72 -23 80 -36 32
-53 -31 -11 -44 -35 -19 -35 21 0 107 -87 128 -129 14 -29 16 -58 12 -200 -6
-214 -14 -293 -29 -284 -6 4 -5 0 2 -9 11 -14 11 -22 -2 -47 -9 -16 -24 -32
-35 -36 -11 -3 -21 -18 -24 -39 -3 -19 -16 -58 -30 -87 -13 -30 -27 -84 -31
-121 -11 -113 -46 -181 -86 -171 -17 5 -50 -16 -50 -32 0 -3 -25 -35 -55 -70
-82 -97 -115 -173 -140 -320 l-7 -39 -19 24 c-11 14 -24 34 -28 45 -13 30 -42
24 -89 -20 -51 -47 -67 -75 -98 -170 -12 -38 -23 -63 -23 -54 -2 26 39 141 65
186 13 23 44 54 69 70 35 22 44 32 39 48 -18 62 -21 127 -8 215 8 52 15 118
15 148 1 29 3 51 5 50 10 -11 15 -82 15 -218 0 -122 4 -167 18 -210 20 -60 21
-59 45 43 16 71 82 177 160 259 34 36 71 98 87 148 6 18 8 8 6 -32 -2 -32 1
-58 5 -58 17 0 38 70 38 127 0 43 7 74 29 120 20 41 33 92 42 155 11 84 10
103 -6 167 -9 39 -15 74 -13 77 3 2 16 -19 28 -48 18 -40 23 -69 22 -120 -1
-38 2 -68 6 -68 17 0 32 79 33 166 0 49 4 126 7 172 4 45 4 86 1 90 -4 4 -9
23 -12 43 -2 20 -8 42 -11 48 -17 27 4 8 24 -21 l21 -33 -7 44 c-3 24 -15 59
-27 79 -21 35 -61 80 -75 83 -4 1 -23 12 -42 24 -19 12 -44 27 -55 33 -18 10
-16 11 10 6 17 -3 44 0 60 6 l30 12 -82 39 c-46 22 -83 44 -83 50 0 6 -4 8 -9
4 -5 -3 -16 3 -23 13 -7 10 -23 24 -35 30 -12 7 -23 24 -25 39 -3 31 0 30
-218 57 l-115 15 120 -5 c66 -3 139 -7 162 -10 52 -6 88 22 80 64 -3 15 3 40
16 61 11 20 30 54 43 77 12 22 33 59 48 82 20 32 24 49 19 73 -5 24 -2 35 12
45 22 16 24 15 30 -19z m-1512 -21 c-2 -24 4 -48 16 -65 20 -29 62 -102 97
-171 14 -26 21 -53 18 -66 -9 -36 28 -65 74 -59 20 2 93 6 162 9 135 5 108 -2
-92 -24 -118 -12 -118 -12 -118 -39 0 -15 -9 -34 -20 -44 -11 -9 -20 -14 -20
-11 0 3 -7 -2 -16 -10 -26 -27 -35 -18 -9 10 31 34 44 118 21 143 -9 10 -16
32 -16 49 0 20 -24 73 -70 153 -52 92 -68 128 -64 146 4 15 12 23 23 21 12 -3
15 -13 14 -42z m1351 -70 c-7 -31 -67 -86 -92 -85 -11 0 -9 4 8 10 38 15 68
48 75 81 4 16 9 27 11 25 3 -3 2 -16 -2 -31z m-1203 -28 c11 -21 11 -22 -4 -9
-10 7 -17 17 -17 22 0 15 9 10 21 -13z m739 2 c0 -5 -5 -10 -11 -10 -5 0 -7 5
-4 10 3 6 8 10 11 10 2 0 4 -4 4 -10z m-695 -39 c3 -5 19 -12 36 -16 17 -4 28
-9 25 -12 -6 -7 -74 16 -81 28 -4 5 -2 9 4 9 5 0 12 -4 16 -9z m573 -167 l23
-35 -22 -39 c-26 -46 -32 -48 -47 -17 -7 12 -17 29 -23 38 -9 12 -7 23 12 52
13 20 26 37 29 37 3 0 15 -16 28 -36z m-149 -59 c-13 -13 -16 -12 -26 5 -10
15 -9 22 4 36 16 16 18 15 27 -5 7 -16 6 -26 -5 -36z m268 4 c-10 -16 -14 -17
-25 -5 -9 9 -11 22 -7 36 6 20 8 20 25 5 15 -14 17 -21 7 -36z m-257 -175 c52
-14 105 -26 117 -25 12 0 61 12 110 27 73 22 110 26 215 28 157 1 157 1 192
-139 14 -55 26 -103 26 -107 0 -3 -37 12 -81 34 -72 35 -88 40 -135 36 -33 -3
-62 -12 -76 -24 -20 -17 -21 -17 -9 -1 24 30 67 47 120 47 59 0 86 -9 126 -44
36 -31 43 -27 19 11 -53 82 -130 167 -111 121 21 -51 23 -48 -42 -48 -79 0
-119 -20 -159 -81 -18 -27 -36 -47 -41 -45 -12 8 -31 87 -31 128 0 61 -18 66
-25 7 -7 -57 8 -166 25 -183 20 -20 9 -23 -31 -9 -55 18 -60 10 -12 -20 46
-29 108 -99 139 -157 14 -26 24 -35 27 -26 8 19 -8 81 -27 111 -15 23 -15 26
4 45 11 11 31 20 44 20 44 0 86 21 92 46 7 27 17 29 81 12 l46 -11 -6 -109
c-3 -59 -2 -106 3 -103 8 5 33 75 43 120 3 11 5 -5 6 -36 0 -32 -6 -74 -15
-95 -26 -62 -84 -153 -105 -165 -17 -9 -22 -5 -34 23 l-14 33 -1 -62 c0 -34 5
-84 11 -110 14 -58 -1 -98 -52 -151 -40 -41 -72 -37 -177 19 -90 49 -125 74
-133 97 -9 26 8 75 36 99 21 19 29 20 56 11 63 -22 149 29 149 88 0 13 -16 44
-35 70 -19 25 -38 56 -41 70 -3 13 -10 21 -16 18 -12 -8 -4 -70 11 -88 7 -8
14 -23 16 -35 4 -19 2 -20 -19 -6 -24 16 -95 30 -133 27 -28 -2 -56 -2 -85 0
-37 2 -104 -9 -128 -22 -12 -6 -24 -10 -26 -8 -2 3 6 27 18 55 12 29 18 58 14
69 -5 14 -12 7 -34 -34 -15 -29 -35 -61 -45 -72 -9 -11 -17 -34 -17 -50 0 -57
105 -110 160 -80 28 15 47 3 70 -45 23 -47 16 -90 -17 -102 -10 -4 -20 -9 -23
-12 -7 -8 -77 -47 -130 -72 -70 -33 -89 -32 -130 10 -51 50 -63 86 -51 142 6
24 10 73 10 109 0 65 0 65 -14 33 -8 -18 -17 -33 -20 -33 -15 0 -76 78 -101
130 -21 41 -29 72 -30 125 -2 54 -1 62 5 35 9 -39 39 -110 46 -110 2 0 2 49
-2 108 l-6 108 40 12 c53 16 83 15 83 -1 0 -24 39 -50 82 -54 24 -3 50 -12 59
-21 15 -16 15 -20 0 -52 -9 -19 -18 -37 -21 -40 -9 -9 -10 -69 -2 -74 5 -3 17
14 27 37 18 40 109 140 150 163 33 19 10 26 -30 10 -48 -20 -52 -20 -31 3 21
23 41 147 32 196 -9 45 -26 36 -26 -13 0 -43 -22 -122 -35 -125 -4 -1 -22 19
-39 44 -37 56 -85 79 -161 79 -51 0 -69 10 -45 25 13 8 13 35 0 35 -5 0 -21
-17 -35 -37 -13 -21 -39 -57 -56 -80 -34 -44 -35 -69 -3 -35 38 39 71 53 129
53 38 1 62 -4 72 -14 13 -12 9 -14 -34 -10 -43 5 -61 0 -131 -35 -45 -22 -82
-38 -82 -35 0 9 23 100 41 164 13 47 25 69 41 77 41 21 249 7 358 -24z m-560
20 c0 -3 -37 -23 -82 -44 -88 -41 -89 -54 -7 -54 l37 -1 -30 -18 c-26 -15 -33
-16 -47 -4 -9 7 -28 18 -43 25 -40 17 -35 28 20 41 26 7 65 22 87 35 39 24 65
32 65 20z m-126 -133 c3 -5 -14 -21 -38 -35 -24 -14 -46 -33 -50 -41 -3 -9
-11 -13 -17 -9 -8 4 -9 3 -5 -5 4 -6 3 -17 -2 -24 -14 -16 -35 -98 -28 -105 4
-3 12 3 20 13 12 16 12 11 4 -38 -13 -73 5 -440 21 -445 14 -5 14 -22 1 -22
-21 0 -48 64 -54 129 -4 36 -9 145 -11 241 -5 205 -1 220 88 302 54 50 62 54
71 39z m1541 -131 c47 -52 77 -104 107 -179 21 -55 15 -69 -8 -16 -28 67 -114
199 -167 254 -38 40 -42 46 -14 23 20 -17 57 -54 82 -82z m-984 63 l34 -37
-37 30 c-20 16 -37 32 -37 37 -2 12 4 8 40 -30z m1003 -178 c13 -22 27 -51 31
-64 l7 -25 -30 25 c-16 13 -36 35 -43 49 -17 34 -39 93 -38 105 0 13 44 -41
73 -90z m99 63 c6 -22 5 -22 -8 -4 -17 22 -20 40 -6 32 5 -3 11 -16 14 -28z
m-150 -260 c-2 -5 -1 -8 4 -8 10 0 40 -64 49 -102 10 -44 -2 -33 -30 27 -13
30 -36 69 -49 87 -13 18 -32 47 -42 63 -15 25 -10 22 27 -15 25 -25 44 -48 41
-52z m-1549 -99 c-20 -96 -6 -222 37 -321 21 -47 29 -83 29 -122 0 -58 21
-126 39 -126 9 0 8 20 -4 83 -6 32 10 17 28 -26 9 -23 47 -79 83 -122 36 -44
68 -87 72 -95 3 -8 14 -24 24 -34 10 -11 18 -26 18 -33 0 -7 4 -13 9 -13 9 0
26 -57 40 -130 l8 -45 19 40 c16 33 20 72 24 232 5 186 13 257 18 148 1 -29 7
-77 12 -106 13 -67 13 -216 0 -224 -5 -3 -10 -17 -10 -31 0 -17 5 -24 20 -24
11 0 20 -4 20 -10 0 -5 6 -10 13 -10 15 0 41 -30 69 -78 21 -38 58 -148 57
-172 0 -8 -10 17 -23 57 -26 81 -52 126 -93 165 -33 32 -93 49 -93 27 0 -8 -9
-25 -20 -39 -17 -21 -21 -23 -30 -10 -5 8 -10 29 -10 46 0 52 -30 137 -71 198
-21 32 -39 62 -39 67 0 5 -3 9 -7 9 -5 0 -19 17 -33 37 -35 51 -71 83 -95 83
-51 1 -67 38 -81 179 -2 29 -17 79 -32 110 -45 93 -42 282 5 364 13 21 11 -6
-3 -74z m1406 -88 c0 -5 3 -11 8 -13 4 -1 27 -32 51 -68 l45 -65 -58 55 c-76
72 -106 120 -106 167 l0 38 30 -52 c17 -29 30 -57 30 -62z m209 12 c0 -25 -1
-25 -8 -8 -5 11 -7 23 -4 28 8 14 13 7 12 -20z m-595 -207 c61 -27 72 -42 62
-82 -5 -20 -12 -25 -26 -21 -13 3 -21 -1 -25 -13 -3 -11 -22 -33 -42 -51 -30
-26 -38 -29 -42 -16 -4 9 -11 13 -18 9 -12 -8 -83 -144 -83 -161 0 -6 -5 -11
-11 -11 -6 0 -9 9 -6 20 3 11 1 18 -3 15 -5 -3 -12 5 -16 17 -4 13 -9 25 -13
28 -3 3 -17 26 -30 53 -22 43 -41 61 -41 37 0 -21 -25 -9 -61 30 -21 22 -44
40 -53 40 -17 0 -31 41 -22 65 7 18 85 55 136 64 18 3 80 5 136 4 84 -2 113
-7 158 -27z m-775 -83 c-4 -48 1 -83 10 -83 5 0 16 16 25 35 9 19 18 35 19 35
1 0 2 -28 3 -63 0 -34 11 -104 23 -156 12 -51 20 -95 18 -97 -1 -2 -29 45 -60
105 -49 94 -57 116 -57 164 0 52 7 87 17 87 2 0 3 -12 2 -27z m1201 -52 c0
-32 -6 -74 -14 -92 -19 -46 -106 -196 -106 -184 0 6 9 48 21 95 11 47 21 115
22 152 1 37 3 68 4 68 1 0 10 -16 19 -35 26 -56 38 -42 38 47 0 9 3 15 8 12 4
-3 8 -31 8 -63z m82 -23 c-9 -32 -10 -31 -10 22 -1 46 1 52 10 33 8 -16 8 -32
0 -55z m-1373 15 c-1 -47 -1 -48 -11 -16 -6 18 -8 39 -5 47 11 29 17 17 16
-31z m485 -115 c4 -21 18 -63 32 -95 15 -37 19 -51 8 -38 -31 38 -64 120 -64
160 1 46 14 32 24 -27z m67 35 c47 -51 92 -195 68 -217 -8 -8 -10 -7 -7 4 3 8
-5 31 -17 50 -52 84 -95 190 -76 190 4 0 19 -12 32 -27z m291 -5 c-2 -18 -10
-40 -17 -48 -7 -8 -28 -48 -47 -88 -26 -53 -37 -69 -42 -56 -13 35 29 144 78
201 27 31 33 29 28 -9z m34 -90 c-37 -81 -60 -104 -31 -32 13 34 30 83 37 110
l13 49 3 -37 c2 -24 -6 -56 -22 -90z m-139 -150 c-3 -8 -6 -5 -6 6 -1 11 2 17
5 13 3 -3 4 -12 1 -19z m-162 -408 c16 -14 47 -42 69 -62 l39 -38 37 38 c104
105 138 134 146 121 5 -8 1 -17 -10 -23 -10 -6 -31 -23 -46 -38 -16 -16 -31
-28 -34 -28 -7 0 -76 -72 -86 -90 -5 -8 -10 -13 -12 -10 -28 38 -81 92 -124
127 -34 28 -54 52 -54 65 0 19 2 18 22 -8 13 -16 36 -40 53 -54z m40 -354 c29
-19 34 -56 8 -56 -10 0 -27 7 -37 15 -33 25 -84 19 -117 -14 -56 -57 -30 -158
47 -177 20 -5 40 -1 68 15 42 23 62 17 52 -16 -14 -45 -125 -59 -183 -23 -64
38 -87 141 -48 208 39 66 145 90 210 48z m311 -7 c21 -20 23 -25 10 -37 -13
-13 -18 -13 -40 1 -14 10 -43 17 -65 17 -101 0 -127 -151 -34 -199 47 -24 113
-3 113 36 0 19 -5 23 -32 23 -42 0 -63 13 -55 34 8 20 106 23 125 4 18 -18 15
-94 -4 -112 -43 -43 -129 -52 -186 -19 -68 39 -94 142 -53 211 42 71 165 94
221 41z"/>
<path d="M1207 4733 c-24 -69 -23 -73 24 -73 38 0 41 2 35 23 -6 27 -35 97
-39 97 -2 0 -11 -21 -20 -47z"/>
<path d="M1608 4719 c-36 -21 -21 -39 32 -39 54 0 61 7 32 33 -21 19 -39 21
-64 6z"/>
<path d="M2002 4714 c-25 -17 -31 -71 -10 -92 19 -19 66 -15 78 7 17 32 12 69
-12 85 -12 9 -25 16 -28 16 -3 0 -16 -7 -28 -16z"/>
<path d="M2424 4645 c-11 -27 4 -47 32 -43 34 4 56 34 34 48 -23 15 -60 12
-66 -5z"/>
<path d="M3244 4645 c-11 -27 4 -47 32 -43 34 4 56 34 34 48 -23 15 -60 12
-66 -5z"/>
<path d="M3958 4719 c-36 -21 -21 -39 32 -39 54 0 61 7 32 33 -21 19 -39 21
-64 6z"/>
<path d="M4284 4645 c-11 -27 4 -47 32 -43 34 4 56 34 34 48 -23 15 -60 12
-66 -5z"/>
</g>
</svg>
